<svg width="12" height="11" viewBox="0 0 12 11" fill="none" xmlns="http://www.w3.org/2000/svg">
<path fill-rule="evenodd" clip-rule="evenodd" d="M6.23051 0.253906C3.30145 0.253906 0.933594 2.67964 0.933594 5.68061C0.933594 8.07945 2.45076 10.11 4.55548 10.8287C4.81862 10.8827 4.91501 10.7119 4.91501 10.5683C4.91501 10.4424 4.90634 10.0112 4.90634 9.5619C3.43286 9.88541 3.12602 8.915 3.12602 8.915C2.88923 8.28608 2.53837 8.12443 2.53837 8.12443C2.0561 7.792 2.5735 7.792 2.5735 7.792C3.10846 7.82794 3.38917 8.34903 3.38917 8.34903C3.86265 9.17555 4.62563 8.94202 4.93258 8.79824C4.97638 8.44783 5.11679 8.20525 5.26587 8.07052C4.09067 7.94471 2.85421 7.47753 2.85421 5.39305C2.85421 4.80007 3.06455 4.31492 3.39784 3.93761C3.34526 3.80287 3.16105 3.24572 3.45054 2.50003C3.45054 2.50003 3.89778 2.35625 4.90623 3.05707C5.33798 2.93828 5.78324 2.87785 6.23051 2.87734C6.67776 2.87734 7.13368 2.9403 7.55469 3.05707C8.56324 2.35625 9.01049 2.50003 9.01049 2.50003C9.29998 3.24572 9.11566 3.80287 9.06308 3.93761C9.40515 4.31492 9.60682 4.80007 9.60682 5.39305C9.60682 7.47753 8.37036 7.93567 7.18637 8.07052C7.37937 8.2412 7.54591 8.56459 7.54591 9.07676C7.54591 9.80448 7.53723 10.3885 7.53723 10.5681C7.53723 10.7119 7.63373 10.8827 7.89677 10.8288C10.0015 10.1099 11.5187 8.07945 11.5187 5.68061C11.5273 2.67964 9.15079 0.253906 6.23051 0.253906Z" fill="#31302E"/>
</svg>
