<svg width="11" height="11" viewBox="0 0 11 11" fill="none" xmlns="http://www.w3.org/2000/svg">
<path d="M2.82849 4.34823H0.761095V10.9639H2.82849V4.34823ZM3.01456 2.07409C3.01565 1.91771 2.98593 1.76264 2.92709 1.61775C2.86825 1.47286 2.78144 1.34097 2.67163 1.22962C2.56182 1.11828 2.43115 1.02965 2.28709 0.968803C2.14303 0.907957 1.98839 0.876082 1.83201 0.875H1.79479C1.47678 0.875 1.17178 1.00133 0.946909 1.22621C0.722036 1.45108 0.595703 1.75607 0.595703 2.07409C0.595703 2.39211 0.722036 2.6971 0.946909 2.92198C1.17178 3.14685 1.47678 3.27318 1.79479 3.27318C1.95119 3.27703 2.10681 3.25002 2.25276 3.19371C2.39871 3.13739 2.53213 3.05287 2.64541 2.94497C2.75869 2.83707 2.84959 2.70791 2.91293 2.56487C2.97627 2.42182 3.0108 2.2677 3.01456 2.1113V2.07409ZM10.6846 6.94488C10.6846 4.95605 9.41936 4.18284 8.16238 4.18284C7.75082 4.16223 7.34105 4.24989 6.97394 4.43707C6.60683 4.62425 6.29522 4.90442 6.07018 5.24962H6.01229V4.34823H4.06893V10.9639H6.13633V7.44519C6.10645 7.08482 6.21996 6.7272 6.45222 6.45004C6.68448 6.17288 7.01672 5.99855 7.37677 5.96493H7.45533C8.11276 5.96493 8.60067 6.37842 8.60067 7.42038V10.9639H10.6681L10.6846 6.94488Z" fill="#E9FD53"/>
<path d="M10.6846 6.94488C10.6846 4.95605 9.41936 4.18284 8.16238 4.18284C7.75082 4.16223 7.34105 4.24989 6.97394 4.43707C6.60683 4.62425 6.29522 4.90442 6.07018 5.24962H6.01229V4.34823H4.06893V10.9639H6.13633V7.44519C6.10645 7.08482 6.21996 6.7272 6.45222 6.45004C6.68448 6.17288 7.01672 5.99855 7.37677 5.96493H7.45533C8.11276 5.96493 8.60067 6.37842 8.60067 7.42038V10.9639H10.6681L10.6846 6.94488Z" fill="#31302E"/>
<path d="M2.82849 4.34823H0.761095V10.9639H2.82849V4.34823Z" fill="#31302E"/>
<path d="M3.01456 2.07409C3.01565 1.91771 2.98593 1.76264 2.92709 1.61775C2.86825 1.47286 2.78144 1.34097 2.67163 1.22962C2.56182 1.11828 2.43115 1.02965 2.28709 0.968803C2.14303 0.907957 1.98839 0.876082 1.83201 0.875H1.79479C1.47678 0.875 1.17178 1.00133 0.946909 1.22621C0.722036 1.45108 0.595703 1.75607 0.595703 2.07409C0.595703 2.39211 0.722036 2.6971 0.946909 2.92198C1.17178 3.14685 1.47678 3.27318 1.79479 3.27318C1.95119 3.27703 2.10681 3.25002 2.25276 3.19371C2.39871 3.13739 2.53213 3.05287 2.64541 2.94497C2.75869 2.83707 2.84959 2.70791 2.91293 2.56487C2.97627 2.42182 3.0108 2.2677 3.01456 2.1113V2.07409Z" fill="#31302E"/>
</svg>
