<svg width="197" height="195" viewBox="0 0 197 195" fill="none" xmlns="http://www.w3.org/2000/svg">
<path fill-rule="evenodd" clip-rule="evenodd" d="M144.885 98.9422C140.001 98.9422 135.22 101.774 130.783 104.835C117.268 114.157 110.678 123.847 111.194 133.649C111.946 139.739 115.793 146.045 120.998 149.694C122.765 150.933 124.874 152.202 127.14 152.202C127.67 152.202 128.194 152.13 128.7 151.995C131.559 151.214 133.625 148.714 135.452 146.503C135.456 146.498 135.46 146.493 135.464 146.488C143.884 136.291 152.69 124.094 154.304 110.802C154.825 106.507 153.518 100.942 148.113 99.3895C147.079 99.0916 145.994 98.9422 144.885 98.9422ZM127.14 152.526C124.787 152.526 122.621 151.232 120.812 149.962C115.536 146.262 111.633 139.868 110.87 133.676C110.348 123.744 116.988 113.955 130.6 104.564C135.08 101.474 139.91 98.6146 144.885 98.6146C146.021 98.6146 147.138 98.7685 148.2 99.0745C153.804 100.684 155.162 106.419 154.625 110.84C153.002 124.22 144.163 136.461 135.731 146.675L135.729 146.676C133.853 148.95 131.747 151.503 128.786 152.309C128.251 152.454 127.698 152.526 127.14 152.526Z" fill="white" fill-opacity="0.9"/>
<path fill-rule="evenodd" clip-rule="evenodd" d="M136.826 113.413C133.87 113.413 130.708 115.091 129.487 115.816C124.017 119.047 119.026 125.415 120.213 132.347C121.291 135.991 123.706 138.007 127.012 138.007C129.88 138.007 133.066 136.398 135.329 133.808C141.258 127.015 143.435 121.312 141.795 116.859C140.95 114.572 139.277 113.413 136.826 113.413ZM127.012 138.334C123.551 138.334 121.023 136.234 119.897 132.423C118.682 125.318 123.755 118.823 129.324 115.532C130.565 114.795 133.789 113.085 136.826 113.085C139.429 113.085 141.202 114.317 142.095 116.745C143.784 121.318 141.586 127.131 135.571 134.023C133.251 136.681 129.972 138.334 127.012 138.334Z" fill="white" fill-opacity="0.9"/>
<path fill-rule="evenodd" clip-rule="evenodd" d="M107.697 194.199C110.697 189.884 114.024 185.806 117.267 181.841L117.638 181.387C117.903 181.065 118.171 180.735 118.446 180.391C118.451 180.385 118.455 180.379 118.46 180.374C121.379 176.756 125.008 172.258 129.742 171.991C135.198 171.685 139.954 177.145 142.791 180.406C144.236 182.066 145.685 183.764 147.087 185.409L147.089 185.41C147.117 185.444 147.146 185.478 147.175 185.512C149.625 188.386 152.141 191.335 154.733 194.199H155.174C152.517 191.268 149.934 188.244 147.421 185.298C145.99 183.621 144.508 181.886 143.036 180.192C140.158 176.884 135.336 171.341 129.722 171.665C124.842 171.941 121.155 176.51 118.195 180.181C117.965 180.473 117.736 180.753 117.514 181.027C117.472 181.078 117.431 181.128 117.39 181.179L117.019 181.634C113.722 185.66 110.342 189.802 107.3 194.199H107.697Z" fill="white" fill-opacity="0.9"/>
<path fill-rule="evenodd" clip-rule="evenodd" d="M115.603 194.2C119.283 189.464 124.112 185.817 128.207 184.867C134.864 183.323 140.695 188.842 145.011 194.2H145.43C141.046 188.708 135.059 182.938 128.135 184.547C123.915 185.523 118.937 189.309 115.194 194.2H115.603Z" fill="white" fill-opacity="0.9"/>
<path d="M194.985 0.699219H96.4832C97.0772 3.42976 98.7287 5.86606 100.351 7.8942C101.331 9.11688 102.384 10.3227 103.404 11.4899L103.421 11.5098C105.876 14.3204 108.415 17.2274 110.161 20.6348C112.567 25.3259 113.925 29.4833 114.57 34.116C114.715 35.1663 114.846 36.2338 114.972 37.2687L114.988 37.3994C115.359 40.4699 115.747 43.6446 116.561 46.6931C117.527 50.3182 118.928 53.8676 120.285 57.2989C120.388 57.5621 120.492 57.8252 120.596 58.0882L120.6 58.0965C120.762 58.5103 120.925 58.9239 121.086 59.3381C125.145 69.7456 125.515 79.2157 122.184 87.4814C119.235 94.8005 114.144 100.981 109.218 106.959L109.212 106.967C103.254 114.192 97.0934 121.662 94.7597 131.154C92.5619 140.096 95.7884 147.843 98.9114 155.338C102.758 164.576 102.289 172.024 97.3886 179.488C95.1125 182.959 92.3657 186.15 89.7084 189.236C88.3159 190.854 86.9027 192.502 85.5449 194.199H93.0209C93.7418 193.257 94.4699 192.34 95.1845 191.459C95.864 190.617 96.5606 189.776 97.2563 188.936L97.2743 188.914C101.304 184.037 105.471 178.994 107.552 172.95C110.394 164.705 107.051 157.673 103.514 150.232L103.509 150.223L103.002 149.151C99.1958 141.114 98.4434 133.877 100.697 127.029C103.043 119.909 107.911 113.869 112.292 108.766C113.323 107.562 114.391 106.349 115.424 105.18L115.436 105.166C119.118 100.99 122.923 96.6752 125.89 91.8098C126.412 90.9557 126.938 90.059 127.45 89.1856L127.552 89.012L127.557 89.0024C130.929 83.2576 134.413 77.3194 140.503 74.5139C142.82 73.4456 145.332 72.8223 147.762 72.2196L147.771 72.2172C149.445 71.8029 151.173 71.3742 152.82 70.8043C155.672 69.8163 158.468 68.5547 161.17 67.3322L161.255 67.2935C162.972 66.5181 164.747 65.7167 166.526 64.9948C175.965 61.1513 184.74 60.7496 192.605 63.8024C194.318 64.4669 195.786 65.2011 197.001 65.9903V2.71835C197.001 1.60321 196.098 0.699219 194.985 0.699219Z" fill="#F8F775"/>
<path fill-rule="evenodd" clip-rule="evenodd" d="M2.81654 194.2H75.2845C77.2296 190.88 79.4919 187.837 81.7052 184.865L81.7357 184.824C83.6109 182.304 85.5508 179.698 87.2842 176.94C91.7548 169.832 89.788 163.335 87.706 156.457L87.7032 156.447C87.1837 154.735 86.6461 152.961 86.1962 151.147C84.2794 143.419 85.9913 134.175 91.2841 123.672C94.1074 118.076 98.2276 113.045 102.21 108.181L102.224 108.164C108.959 99.9416 115.921 91.442 116.518 80.1497C116.902 72.8586 114.014 65.8703 111.221 59.1097L111.209 59.0802L111.121 58.8674C110.312 56.9087 109.478 54.8895 108.757 52.9216C107.713 50.0698 106.859 47.0747 106.036 44.177L106.035 44.1755C104.433 38.548 102.777 32.7302 99.637 27.6947C95.7418 21.4496 89.9886 16.3552 83.4416 13.3493C76.7669 10.2849 69.3459 9.48159 59.3893 10.7508C57.3784 11.006 55.3352 11.313 53.3592 11.6106C45.9291 12.7305 38.2438 13.8863 30.5869 12.5523C23.3236 11.2856 17.1207 8.0867 10.5522 4.6992L10.5371 4.69143C9.58708 4.19994 8.63318 3.70717 7.67284 3.22045C5.98856 2.36527 4.27135 1.51569 2.52622 0.720314C1.5505 0.861291 0.800781 1.70228 0.800781 2.71866V192.181C0.800781 193.296 1.70327 194.2 2.81654 194.2ZM28.7672 120.925C33.285 123.045 39.1743 124.213 45.343 124.213C45.9883 124.213 46.6347 124.2 47.2735 124.176C64.6787 123.473 77.986 110.321 86.4806 100.487C93.7285 92.1017 96.3754 84.3386 94.8157 76.0571C93.2596 67.8134 88.2823 59.5274 83.6203 52.5105C78.6016 44.9613 71.861 39.565 64.1262 36.9053C59.6742 35.3747 54.5833 34.6297 48.5626 34.6297C46.0307 34.6297 43.3623 34.7604 40.3939 35.0297C32.3513 35.7588 26.7697 38.206 23.3338 42.5097C19.1084 47.799 19.2372 54.9608 19.8181 60.6093C19.9642 62.0256 20.1295 63.4507 20.2897 64.8325L20.3086 64.9963C21.0132 71.0558 21.6764 76.7799 21.0763 82.8426C20.778 85.8439 20.2023 88.8719 19.6449 91.8038L19.6274 91.8956L19.6233 91.9172C18.5866 97.3496 17.5149 102.966 18.1529 108.658C19.4265 114.094 22.9977 118.22 28.7672 120.925Z" fill="#8AE574"/>
<path d="M96.1476 0.699219H3.25998C4.80425 1.41581 6.32404 2.17008 7.81804 2.9273C8.64266 3.34657 9.46253 3.76916 10.2818 4.19141L10.6861 4.39984C17.2345 7.779 23.4219 10.9696 30.6444 12.2292C38.2465 13.555 45.9027 12.4027 53.3102 11.2878L53.3123 11.2875L53.3786 11.2775C55.3354 10.9829 57.3579 10.6784 59.3489 10.4261C69.3724 9.15065 76.8438 9.96013 83.5777 13.0529C90.1815 16.0842 95.9811 21.2225 99.9114 27.5212C103.072 32.5852 104.733 38.4152 106.338 44.0553L106.347 44.087L106.383 44.2114C107.197 47.0639 108.037 50.0079 109.064 52.8077C109.798 54.8199 110.654 56.8888 111.483 58.8912L111.509 58.954C114.323 65.7568 117.229 72.7908 116.84 80.1667C116.238 91.5659 109.243 100.109 102.476 108.372L102.467 108.382C98.4921 113.235 94.3827 118.253 91.5747 123.819C86.3195 134.25 84.6141 143.419 86.5116 151.068C86.9573 152.859 87.4866 154.61 87.9992 156.307L88.0133 156.353C90.1209 163.307 92.1102 169.876 87.5595 177.117C85.809 179.897 83.8561 182.524 81.9638 185.062C79.7957 187.977 77.5772 190.958 75.663 194.199H85.1273C86.5391 192.423 88.0141 190.706 89.4647 189.022L89.4774 189.006C92.1246 185.932 94.8597 182.755 97.1232 179.309C101.954 171.941 102.415 164.588 98.6136 155.464L98.6082 155.452C95.4681 147.913 92.22 140.116 94.4457 131.076C96.7965 121.52 102.971 114.025 108.944 106.776L108.96 106.755C113.876 100.797 118.955 94.634 121.886 87.3584C125.182 79.1716 124.812 69.7847 120.786 59.4578C120.593 58.9613 120.397 58.4657 120.201 57.9704V57.9692L120.2 57.968L120.199 57.9668L120.197 57.9616L120.196 57.9559C120.195 57.954 120.194 57.9521 120.193 57.9501C120.192 57.9483 120.192 57.9464 120.191 57.9445C120.122 57.7697 120.053 57.5949 119.983 57.4201L119.98 57.4115C118.622 53.9735 117.218 50.4193 116.247 46.7784C115.436 43.7339 115.05 40.5753 114.676 37.5184L114.666 37.4388C114.537 36.3649 114.401 35.2532 114.248 34.1618C113.609 29.5684 112.259 25.4427 109.875 20.786C108.146 17.4131 105.62 14.5219 103.177 11.7252L103.137 11.6807C102.124 10.5199 101.076 9.3191 100.101 8.09866C98.4345 6.01699 96.7416 3.51619 96.1476 0.699219Z" fill="#78F775"/>
<path fill-rule="evenodd" clip-rule="evenodd" d="M48.5634 34.9572C46.0444 34.9572 43.3812 35.0879 40.4256 35.3555C32.4745 36.0767 26.9663 38.4828 23.5857 42.714C19.4364 47.9107 19.5651 54.989 20.1395 60.5743C20.2941 62.0453 20.4641 63.5256 20.6301 64.9584C21.3385 71.0369 22.0043 76.7764 21.3977 82.8756C21.0963 85.9225 20.5117 88.9902 19.945 91.9567C18.9108 97.3711 17.8445 102.97 18.4705 108.601C21.7944 122.78 39.8795 123.886 45.3438 123.886C45.9852 123.886 46.6291 123.873 47.2615 123.847C64.5417 123.152 77.782 110.06 86.2393 100.273C93.4143 91.9675 96.0369 84.2926 94.4961 76.1183C92.9553 67.9316 87.9972 59.6818 83.3507 52.6915C78.3731 45.2037 71.6879 39.8511 64.0227 37.2154C59.6028 35.6958 54.5468 34.9572 48.5634 34.9572ZM48.4217 115.234H48.4256C62.7335 115.234 75.6815 103.033 79.3094 99.2971C86.5882 91.7902 89.4717 84.9084 88.3836 77.6378C87.2991 70.3913 82.8845 62.0481 76.2688 54.7498C70.2391 48.0901 62.7207 43.7612 54.5313 42.2322C51.9968 41.7597 49.4843 41.5189 47.067 41.5189C41.6748 41.5189 37.1441 42.6856 33.6 44.9847C28.8994 48.0349 26.7371 53.4016 27.1698 60.9381C27.2713 61.8851 27.3715 62.8291 27.4716 63.7731L27.4725 63.7806C28.4847 73.216 29.4403 82.1289 28.7796 91.4482C28.1073 100.907 30.2168 107.282 35.2317 110.939C39.1428 113.789 43.5795 115.234 48.4217 115.234Z" fill="#F8F775"/>
<path fill-rule="evenodd" clip-rule="evenodd" d="M47.0655 41.8461C41.7364 41.8461 37.2651 42.994 33.7711 45.2602C29.1786 48.2426 27.0653 53.5084 27.4903 60.9111L27.5397 61.3749C27.6238 62.1633 27.7081 62.9544 27.7943 63.7454L27.797 63.7707C28.7646 72.7971 29.7653 82.1325 29.1027 91.4712C28.4394 100.81 30.5052 107.09 35.4195 110.67C39.274 113.482 43.6476 114.906 48.4203 114.906C62.6072 114.906 75.4689 102.784 79.0761 99.0663C86.279 91.6413 89.1341 84.8467 88.0614 77.6866C86.986 70.5025 82.5997 62.2227 76.029 54.9697C70.0458 48.3622 62.5904 44.0695 54.4731 42.553C51.9541 42.0839 49.4609 41.8461 47.0655 41.8461ZM54.3817 102.973H54.3856C63.8512 102.973 74.8623 95.1576 78.4245 85.9063C83.1508 73.6378 71.1688 61.8102 63.3426 56.7553C60.0534 54.6296 54.9793 52.0958 49.4982 52.0958C47.4042 52.0958 45.4081 52.4755 43.5625 53.2216C37.5065 55.6739 37.821 63.0872 38.0091 67.5208L38.0094 67.5281L38.0158 67.5941C38.513 71.0216 38.8288 74.5421 39.1344 77.9491L39.1414 78.0265C39.484 81.8533 39.8394 85.8102 40.4499 89.6716C41.0976 93.7671 43.2857 100.888 50.6625 102.564C51.8511 102.835 53.1016 102.973 54.3817 102.973Z" fill="#F8D674"/>
<path d="M39.3035 67.4388C39.8071 70.9173 40.1278 74.4716 40.4356 77.9091C40.7742 81.7152 41.1271 85.6504 41.7311 89.4676C42.3274 93.2359 44.3184 99.7816 50.9469 101.289C52.0429 101.538 53.2006 101.667 54.3829 101.667C63.3721 101.667 73.8293 94.2322 77.2189 85.4331C81.6388 73.9521 70.1383 62.6975 62.6457 57.8568C59.5008 55.8257 54.6688 53.4037 49.4994 53.4037C47.5727 53.4037 45.7363 53.7516 44.048 54.435C39.2533 56.378 39.0807 62.1604 39.3035 67.4388Z" fill="#F77774"/>
<path fill-rule="evenodd" clip-rule="evenodd" d="M54.3856 102.973H54.3817C53.1016 102.973 51.8511 102.835 50.6625 102.564C43.2857 100.888 41.0976 93.7671 40.4499 89.6716C39.8394 85.8102 39.484 81.8533 39.1414 78.0265L39.1344 77.9491C38.8288 74.5421 38.513 71.0216 38.0158 67.5941L38.0094 67.5281L38.0091 67.5208C37.821 63.0872 37.5065 55.6739 43.5625 53.2216C45.4081 52.4755 47.4042 52.0958 49.4982 52.0958C54.9793 52.0958 60.0534 54.6296 63.3426 56.7553C71.1688 61.8102 83.1508 73.6378 78.4245 85.9063C74.8623 95.1576 63.8512 102.973 54.3856 102.973ZM40.4345 77.9084C40.1267 74.471 39.806 70.9166 39.3025 67.4381C39.0796 62.1598 39.2523 56.3774 44.0469 54.4344C45.7352 53.751 47.5717 53.4031 49.4983 53.4031C54.6677 53.4031 59.4997 55.825 62.6446 57.8562C70.1373 62.6968 81.6377 73.9515 77.2178 85.4324C73.8283 94.2316 63.371 101.666 54.3818 101.666C53.1996 101.666 52.0418 101.537 50.9459 101.288C44.3174 99.781 42.3263 93.2352 41.73 89.4669C41.1261 85.6498 40.7732 81.7145 40.4345 77.9084Z" fill="#F89774"/>
<path fill-rule="evenodd" clip-rule="evenodd" d="M48.4256 115.234H48.4217C43.5795 115.234 39.1428 113.789 35.2317 110.939C30.2168 107.282 28.1073 100.907 28.7796 91.4482C29.4403 82.1289 28.4847 73.216 27.4725 63.7806L27.4716 63.7731C27.3715 62.8291 27.2713 61.8851 27.1698 60.9381C26.7371 53.4016 28.8994 48.0349 33.6 44.9847C37.1441 42.6856 41.6748 41.5189 47.067 41.5189C49.4843 41.5189 51.9968 41.7597 54.5313 42.2322C62.7207 43.7612 70.2391 48.0901 76.2688 54.7498C82.8845 62.0481 87.2991 70.3913 88.3836 77.6378C89.4717 84.9084 86.5882 91.7902 79.3094 99.2971C75.6815 103.033 62.7335 115.234 48.4256 115.234ZM33.7722 45.2608C37.2661 42.9946 41.7375 41.8467 47.0666 41.8467C49.4619 41.8467 51.9552 42.0845 54.4742 42.5537C62.5915 44.0701 70.0468 48.3628 76.0301 54.9704C82.6008 62.2234 86.9871 70.5031 88.0625 77.6873C89.1352 84.8474 86.28 91.6419 79.0772 99.0669C75.47 102.785 62.6082 114.907 48.4214 114.907C43.6487 114.907 39.2751 113.483 35.4206 110.671C30.5062 107.09 28.4405 100.81 29.1038 91.4718C29.7663 82.1332 28.7656 72.7977 27.798 63.7714L27.7953 63.7461C27.7092 62.9551 27.6249 62.164 27.5408 61.3756L27.4914 60.9117C27.0663 53.509 29.1797 48.2432 33.7722 45.2608Z" fill="#F8E674"/>
<path d="M197.001 192.181V66.3765C195.58 65.433 193.962 64.6804 192.488 64.1084C184.702 61.0872 176.009 61.4872 166.645 65.2991C164.846 66.0301 163.046 66.8443 161.305 67.6322L161.272 67.6471C158.571 68.8665 155.781 70.1268 152.924 71.1134C151.281 71.6822 149.566 72.1092 147.905 72.5226L147.852 72.5359C145.43 73.1345 142.93 73.7549 140.637 74.812C134.643 77.5751 131.184 83.4693 127.837 89.1706L127.832 89.1798C127.287 90.1091 126.724 91.0678 126.167 91.9822C123.182 96.8764 119.363 101.208 115.665 105.398C114.633 106.567 113.57 107.776 112.536 108.98C108.175 114.058 103.333 120.069 101.007 127.133C98.78 133.894 99.5261 141.051 103.294 149.013L103.802 150.082C107.372 157.589 110.745 164.682 107.86 173.058C105.758 179.161 101.563 184.235 97.5074 189.14L97.5038 189.143L97.3886 189.284L97.1339 189.593L97.1303 189.598C96.5606 190.288 95.9945 190.976 95.4356 191.664C94.775 192.483 94.1018 193.33 93.434 194.2H99.5729C100.818 192.52 102.113 190.886 103.397 189.272L103.453 189.202C104.869 187.415 106.329 185.571 107.67 183.726C112.438 177.167 118.367 169.002 115.879 160.532C114.82 156.922 112.753 153.641 110.757 150.471L110.753 150.463C108.073 146.219 105.305 141.827 104.759 136.455C103.192 121.098 115.799 109.321 125.929 99.8572L126.728 99.1102C132.93 93.3097 138.698 88.2904 146.459 85.6094C149.861 84.4342 153.444 83.853 156.913 83.2904L156.944 83.2853C157.63 83.1753 158.316 83.0633 158.998 82.9484C159.212 82.9121 159.453 82.8684 159.714 82.8207L159.717 82.8204L159.72 82.8197L159.723 82.8191L159.819 82.8017L159.83 82.7997C162.665 82.2861 167.398 81.4287 169.936 83.2191C170.804 83.8322 171.339 84.6985 171.527 85.7935C171.974 88.3942 170.955 91.4062 170.056 94.0648C169.854 94.657 169.666 95.2141 169.505 95.737C168.385 99.364 167.037 103.022 165.383 106.917C162.636 113.375 159.206 120.124 154.579 128.162C153.49 130.056 152.253 132.004 150.947 134.063L150.815 134.271C144.594 144.051 137.547 155.133 142.107 165.953C144.849 172.463 149.743 178.702 153.699 183.405C157.234 187.612 160.926 191.222 164.719 194.2H194.985C196.098 194.2 197.001 193.296 197.001 192.181Z" fill="#F8D674"/>
<path fill-rule="evenodd" clip-rule="evenodd" d="M155.174 194.199L162.64 194.199C159.228 191.376 155.903 188.048 152.711 184.251C148.696 179.475 143.723 173.135 140.915 166.466C136.089 155.011 143.329 143.62 149.717 133.568L149.72 133.564C151.073 131.441 152.346 129.435 153.46 127.506C158.058 119.516 161.467 112.807 164.19 106.398C165.828 102.545 167.161 98.931 168.265 95.3472C168.433 94.8081 168.624 94.2411 168.829 93.6408C169.678 91.1316 170.637 88.2862 170.251 86.0145C170.122 85.2664 169.776 84.7023 169.194 84.2896C167.096 82.8092 162.514 83.6416 160.051 84.0892L160.048 84.0896L159.989 84.1001L159.944 84.1082C159.889 84.1181 159.835 84.1278 159.783 84.1373L159.777 84.1383C159.574 84.1749 159.385 84.2091 159.212 84.2376C158.526 84.3526 157.838 84.4645 157.149 84.5762L157.139 84.5777C153.72 85.1318 150.183 85.7052 146.877 86.8466C139.358 89.4442 133.704 94.3707 127.609 100.069L126.81 100.816L126.803 100.822C116.885 110.087 104.548 121.615 106.048 136.318C106.562 141.376 109.12 145.438 111.829 149.74L111.843 149.763C113.894 153.012 116.01 156.37 117.124 160.16C119.79 169.251 113.655 177.7 108.722 184.492L108.719 184.498C107.414 186.295 106.001 188.079 104.628 189.81L104.409 190.087C103.334 191.438 102.252 192.806 101.198 194.199L107.3 194.199C110.342 189.802 113.722 185.66 117.019 181.634L117.39 181.179C117.431 181.128 117.472 181.078 117.514 181.027C117.736 180.753 117.965 180.473 118.195 180.181C121.155 176.51 124.842 171.941 129.722 171.665C135.336 171.341 140.158 176.884 143.036 180.192C144.508 181.886 145.99 183.621 147.421 185.298C149.934 188.244 152.517 191.268 155.174 194.199ZM120.812 149.962C122.621 151.232 124.787 152.526 127.14 152.526C127.698 152.526 128.251 152.454 128.786 152.309C131.747 151.503 133.853 148.95 135.729 146.676L135.731 146.675C144.163 136.461 153.002 124.22 154.625 110.84C155.162 106.419 153.804 100.684 148.2 99.0745C147.138 98.7685 146.021 98.6146 144.885 98.6146C139.91 98.6146 135.08 101.474 130.6 104.564C116.988 113.955 110.348 123.744 110.87 133.676C111.633 139.868 115.536 146.262 120.812 149.962Z" fill="#F89774"/>
<path fill-rule="evenodd" clip-rule="evenodd" d="M144.884 98.9416C140 98.9416 135.219 101.773 130.782 104.834C117.267 114.156 110.677 123.846 111.193 133.648C111.945 139.739 115.792 146.044 120.997 149.694C122.764 150.932 124.873 152.201 127.139 152.201C127.669 152.201 128.193 152.129 128.699 151.994C131.558 151.214 133.624 148.713 135.451 146.502L135.463 146.488C143.883 136.291 152.689 124.093 154.303 110.802C154.824 106.506 153.517 100.941 148.112 99.3889C147.078 99.091 145.993 98.9416 144.884 98.9416ZM119.895 132.423C121.021 136.234 123.549 138.334 127.011 138.334C129.971 138.334 133.249 136.681 135.57 134.023C141.584 127.131 143.782 121.318 142.094 116.745C141.2 114.317 139.427 113.085 136.824 113.085C133.788 113.085 130.564 114.795 129.323 115.532C123.754 118.824 118.68 125.318 119.895 132.423Z" fill="#F77774"/>
<path d="M145.431 194.199L154.733 194.199C152.141 191.335 149.625 188.386 147.175 185.512L147.089 185.41L147.087 185.409C145.685 183.764 144.236 182.066 142.791 180.406C139.954 177.145 135.198 171.685 129.742 171.991C125.008 172.258 121.379 176.756 118.46 180.374L118.446 180.391C118.171 180.735 117.903 181.065 117.638 181.387L117.267 181.841C114.024 185.806 110.697 189.884 107.697 194.199L115.195 194.199C118.938 189.307 123.916 185.522 128.136 184.545C135.06 182.937 141.047 188.707 145.431 194.199Z" fill="#F77774"/>
<path fill-rule="evenodd" clip-rule="evenodd" d="M45.343 124.213C39.1743 124.213 33.285 123.045 28.7672 120.925C22.9977 118.22 19.4265 114.094 18.1529 108.658C17.5149 102.966 18.5866 97.3496 19.6233 91.9172L19.6274 91.8956L19.6449 91.8038C20.2023 88.8719 20.778 85.8439 21.0763 82.8426C21.6764 76.7799 21.0132 71.0558 20.3086 64.9963L20.2897 64.8325C20.1295 63.4507 19.9642 62.0256 19.8181 60.6093C19.2372 54.9608 19.1084 47.799 23.3338 42.5097C26.7697 38.206 32.3513 35.7588 40.3939 35.0297C43.3623 34.7604 46.0307 34.6297 48.5626 34.6297C54.5833 34.6297 59.6742 35.3747 64.1262 36.9053C71.861 39.565 78.6016 44.9613 83.6203 52.5105C88.2823 59.5274 93.2596 67.8134 94.8157 76.0571C96.3754 84.3386 93.7285 92.1017 86.4806 100.487C77.986 110.321 64.6787 123.473 47.2735 124.176C46.6347 124.2 45.9883 124.213 45.343 124.213ZM40.4244 35.3562C43.38 35.0886 46.0432 34.958 48.5622 34.958C54.5456 34.958 59.6016 35.6965 64.0215 37.2162C71.6867 39.8518 78.3719 45.2045 83.3495 52.6923C87.996 59.6825 92.9541 67.9323 94.4949 76.119C96.0357 84.2934 93.4131 91.9682 86.2381 100.273C77.7808 110.061 64.5406 123.152 47.2603 123.848C46.6279 123.874 45.984 123.887 45.3427 123.887C39.8783 123.887 21.7932 122.781 18.4693 108.602C17.8433 102.971 18.9097 97.3718 19.9438 91.9574C20.5105 88.9909 21.0951 85.9233 21.3965 82.8763C22.0031 76.7772 21.3373 71.0376 20.6289 64.9591C20.4629 63.5263 20.2929 62.0461 20.1383 60.575C19.564 54.9897 19.4352 47.9115 23.5845 42.7147C26.9651 38.4835 32.4733 36.0775 40.4244 35.3562Z" fill="#C6F875"/>
<path d="M3.25998 0.699219H2.8173C2.71871 0.699219 2.62101 0.706617 2.52622 0.720314C4.27135 1.51569 5.98856 2.36527 7.67284 3.22045C8.63318 3.70717 9.58708 4.19994 10.5371 4.69143L10.5522 4.6992C17.1207 8.0867 23.3236 11.2856 30.5869 12.5523C38.2438 13.8863 45.9291 12.7305 53.3592 11.6106C55.3352 11.313 57.3784 11.006 59.3893 10.7508C69.3459 9.48159 76.7669 10.2849 83.4416 13.3493C89.9886 16.3552 95.7418 21.4496 99.637 27.6947C102.777 32.7302 104.433 38.548 106.035 44.1755L106.036 44.177C106.859 47.0747 107.713 50.0698 108.757 52.9216C109.478 54.8895 110.312 56.9087 111.121 58.8674L111.209 59.0802L111.221 59.1097C114.014 65.8703 116.902 72.8586 116.518 80.1497C115.921 91.442 108.959 99.9416 102.224 108.164L102.21 108.181C98.2276 113.045 94.1074 118.076 91.2841 123.672C85.9913 134.175 84.2794 143.419 86.1962 151.147C86.6461 152.961 87.1837 154.735 87.7032 156.447L87.706 156.457C89.788 163.335 91.7548 169.832 87.2842 176.94C85.5508 179.698 83.6109 182.304 81.7357 184.824L81.7052 184.865C79.4919 187.837 77.2296 190.88 75.2845 194.2L75.663 194.199C77.5772 190.958 79.7957 187.977 81.9638 185.062C83.8561 182.524 85.809 179.897 87.5595 177.117C92.1102 169.876 90.1209 163.307 88.0133 156.353L87.9992 156.307C87.4866 154.61 86.9573 152.859 86.5116 151.068C84.6141 143.419 86.3195 134.25 91.5747 123.819C94.3827 118.253 98.4921 113.235 102.467 108.382L102.476 108.372C109.243 100.109 116.238 91.5659 116.84 80.1667C117.229 72.7908 114.323 65.7568 111.509 58.954L111.483 58.8912C110.654 56.8888 109.798 54.8199 109.064 52.8077C108.037 50.0079 107.197 47.0639 106.383 44.2114L106.347 44.087L106.338 44.0553C104.733 38.4152 103.072 32.5852 99.9114 27.5212C95.9811 21.2225 90.1815 16.0842 83.5777 13.0529C76.8438 9.96013 69.3724 9.15065 59.3489 10.4261C57.3579 10.6784 55.3354 10.9829 53.3786 11.2775L53.3123 11.2875L53.3102 11.2878C45.9027 12.4027 38.2465 13.555 30.6444 12.2292C23.4219 10.9696 17.2345 7.779 10.6861 4.39984L10.2818 4.19141C9.46253 3.76916 8.64266 3.34657 7.81804 2.9273C6.32404 2.17008 4.80425 1.41581 3.25998 0.699219Z" fill="#6FE56C"/>
<path d="M96.4832 0.699219H96.1476C96.7416 3.51619 98.4345 6.01699 100.101 8.09866C101.076 9.3191 102.124 10.5199 103.137 11.6807L103.177 11.7252C105.62 14.5219 108.146 17.4131 109.875 20.786C112.259 25.4427 113.609 29.5684 114.248 34.1618C114.401 35.2532 114.537 36.3649 114.666 37.4388L114.676 37.5184C115.05 40.5753 115.436 43.7339 116.247 46.7784C117.218 50.4193 118.622 53.9735 119.98 57.4115L119.983 57.4201C120.053 57.5949 120.122 57.7697 120.191 57.9445L120.193 57.9501L120.196 57.9559L120.197 57.9616L120.199 57.9668L120.2 57.968L120.201 57.9692V57.9704C120.397 58.4657 120.593 58.9613 120.786 59.4578C124.812 69.7847 125.182 79.1716 121.886 87.3584C118.955 94.634 113.876 100.797 108.96 106.755L108.944 106.776C102.971 114.025 96.7965 121.52 94.4457 131.076C92.22 140.116 95.4681 147.913 98.6082 155.452L98.6136 155.464C102.415 164.588 101.954 171.941 97.1232 179.309C94.8597 182.755 92.1246 185.932 89.4774 189.006L89.4647 189.022C88.0141 190.706 86.5391 192.423 85.1273 194.199H85.5449C86.9027 192.502 88.3159 190.854 89.7084 189.236C92.3657 186.15 95.1125 182.959 97.3886 179.488C102.289 172.024 102.758 164.576 98.9114 155.338C95.7884 147.843 92.5619 140.096 94.7597 131.154C97.0934 121.662 103.254 114.192 109.212 106.967L109.218 106.959C114.144 100.981 119.235 94.8005 122.184 87.4814C125.515 79.2157 125.145 69.7456 121.086 59.3381C120.925 58.9239 120.762 58.5103 120.6 58.0965L120.596 58.0882C120.492 57.8252 120.388 57.5621 120.285 57.2989C118.928 53.8676 117.527 50.3182 116.561 46.6931C115.747 43.6446 115.359 40.4699 114.988 37.3994L114.972 37.2687C114.846 36.2338 114.715 35.1663 114.57 34.116C113.925 29.4833 112.567 25.3259 110.161 20.6348C108.415 17.2274 105.876 14.3204 103.421 11.5098L103.404 11.4899C102.384 10.3227 101.331 9.11688 100.351 7.8942C98.7287 5.86606 97.0772 3.42976 96.4832 0.699219Z" fill="#B4F97C"/>
<path d="M136.824 113.414C133.869 113.414 130.706 115.092 129.486 115.817C124.016 119.049 119.025 125.416 120.211 132.348C121.289 135.992 123.704 138.008 127.011 138.008C129.879 138.008 133.064 136.399 135.328 133.809C141.257 127.016 143.434 121.313 141.793 116.86C140.949 114.573 139.276 113.414 136.824 113.414Z" fill="#EA5668"/>
<path d="M115.603 194.2H145.011C140.695 188.842 134.864 183.323 128.207 184.867C124.112 185.817 119.283 189.464 115.603 194.2Z" fill="#EA5668"/>
<path d="M197.001 66.3765V65.9903C195.786 65.2011 194.318 64.4669 192.605 63.8024C184.74 60.7496 175.965 61.1513 166.526 64.9948C164.747 65.7167 162.972 66.5181 161.255 67.2935L161.17 67.3322C158.468 68.5547 155.672 69.8163 152.82 70.8043C151.173 71.3742 149.445 71.8029 147.771 72.2172L147.762 72.2196C145.332 72.8223 142.82 73.4456 140.503 74.5139C134.413 77.3194 130.929 83.2576 127.557 89.0024L127.552 89.012L127.45 89.1856C126.938 90.059 126.412 90.9557 125.89 91.8098C122.923 96.6752 119.118 100.99 115.436 105.166L115.424 105.18C114.391 106.349 113.323 107.562 112.292 108.766C107.911 113.869 103.043 119.909 100.697 127.029C98.4434 133.877 99.1958 141.114 103.002 149.151L103.509 150.223L103.514 150.232C107.051 157.673 110.394 164.705 107.552 172.95C105.471 178.994 101.304 184.037 97.2743 188.914L97.2563 188.936C96.5606 189.776 95.864 190.617 95.1845 191.459C94.4699 192.34 93.7418 193.257 93.0209 194.199L93.434 194.2C94.1018 193.33 94.775 192.483 95.4356 191.664C95.9945 190.976 96.5606 190.288 97.1303 189.598L97.1339 189.593L97.3886 189.284L97.5038 189.143L97.5074 189.14C101.563 184.235 105.758 179.161 107.86 173.058C110.745 164.682 107.372 157.589 103.802 150.082L103.294 149.013C99.5261 141.051 98.78 133.894 101.007 127.133C103.333 120.069 108.175 114.058 112.536 108.98C113.57 107.776 114.633 106.567 115.665 105.398C119.363 101.208 123.182 96.8764 126.167 91.9822C126.724 91.0678 127.287 90.1091 127.832 89.1798L127.837 89.1706C131.184 83.4693 134.643 77.5751 140.637 74.812C142.93 73.7549 145.43 73.1345 147.852 72.5359L147.905 72.5226C149.566 72.1092 151.281 71.6822 152.924 71.1134C155.781 70.1268 158.571 68.8665 161.272 67.6471L161.305 67.6322C163.046 66.8443 164.846 66.0301 166.645 65.2991C176.009 61.4872 184.702 61.0872 192.488 64.1084C193.962 64.6804 195.58 65.433 197.001 66.3765Z" fill="#F8E275"/>
<path fill-rule="evenodd" clip-rule="evenodd" d="M2.8173 0.699219C2.71871 0.699219 2.62101 0.706617 2.52622 0.720314L2.48126 0.699219H2.8173ZM107.3 194.199H107.697C110.697 189.884 114.024 185.806 117.267 181.841L117.638 181.387C117.903 181.065 118.171 180.735 118.446 180.391L118.46 180.374C121.379 176.756 125.008 172.258 129.742 171.991C135.198 171.685 139.954 177.145 142.791 180.406C144.236 182.066 145.685 183.764 147.087 185.409L147.089 185.41L147.175 185.512C149.625 188.386 152.141 191.335 154.733 194.199H155.174C152.517 191.268 149.934 188.244 147.421 185.298C145.99 183.621 144.508 181.886 143.036 180.192C140.158 176.884 135.336 171.341 129.722 171.665C124.842 171.941 121.155 176.51 118.195 180.181C117.965 180.473 117.736 180.753 117.514 181.027C117.472 181.078 117.431 181.128 117.39 181.179L117.019 181.634C113.722 185.66 110.342 189.802 107.3 194.199ZM115.604 194.199L115.195 194.199C118.938 189.307 123.916 185.522 128.136 184.545C135.06 182.937 141.047 188.707 145.431 194.199L145.012 194.199C140.696 188.842 134.865 183.322 128.208 184.866C124.113 185.817 119.284 189.463 115.604 194.199ZM127.14 152.526C124.787 152.526 122.621 151.232 120.812 149.962C115.536 146.262 111.633 139.868 110.87 133.676C110.348 123.744 116.988 113.955 130.6 104.564C135.08 101.474 139.91 98.6146 144.885 98.6146C146.021 98.6146 147.138 98.7685 148.2 99.0745C153.804 100.684 155.162 106.419 154.625 110.84C153.002 124.22 144.163 136.461 135.731 146.675L135.729 146.676C133.853 148.95 131.747 151.503 128.786 152.309C128.251 152.454 127.698 152.526 127.14 152.526ZM130.783 104.835C135.22 101.774 140.001 98.9422 144.885 98.9422C145.994 98.9422 147.079 99.0916 148.113 99.3895C153.518 100.942 154.825 106.507 154.304 110.802C152.69 124.094 143.884 136.291 135.464 146.488L135.452 146.503C133.625 148.714 131.559 151.214 128.7 151.995C128.194 152.13 127.67 152.202 127.14 152.202C124.874 152.202 122.765 150.933 120.998 149.694C115.793 146.045 111.946 139.739 111.194 133.649C110.678 123.847 117.268 114.157 130.783 104.835ZM127.012 138.334C123.551 138.334 121.023 136.234 119.897 132.423C118.682 125.318 123.755 118.823 129.324 115.532C130.565 114.795 133.789 113.085 136.826 113.085C139.429 113.085 141.202 114.317 142.095 116.745C143.784 121.318 141.586 127.131 135.571 134.023C133.251 136.681 129.972 138.334 127.012 138.334ZM136.826 113.413C133.87 113.413 130.708 115.091 129.487 115.816C124.017 119.047 119.026 125.415 120.213 132.347C121.291 135.991 123.706 138.007 127.012 138.007C129.88 138.007 133.066 136.398 135.329 133.808C141.258 127.015 143.435 121.312 141.795 116.859C140.95 114.572 139.277 113.413 136.826 113.413Z" fill="#F78574"/>
<path d="M162.64 194.199H164.719C160.925 191.221 157.233 187.611 153.698 183.404C149.743 178.701 144.849 172.462 142.106 165.952C137.546 155.132 144.594 144.05 150.815 134.27L150.946 134.062C152.253 132.003 153.489 130.055 154.578 128.161C159.205 120.123 162.635 113.374 165.382 106.916C167.036 103.021 168.384 99.363 169.504 95.736C169.665 95.2131 169.853 94.656 170.056 94.0638C170.954 91.4052 171.974 88.3932 171.526 85.7925C171.338 84.6975 170.804 83.8312 169.935 83.2182C167.397 81.4277 162.664 82.2851 159.829 82.7988L159.818 82.8007L159.723 82.8181L159.719 82.8187L159.717 82.8194L159.714 82.8197C159.452 82.8674 159.212 82.9112 158.997 82.9474C158.315 83.0623 157.629 83.1743 156.944 83.2843L156.912 83.2894C153.444 83.852 149.861 84.4333 146.459 85.6084C138.697 88.2894 132.93 93.3087 126.727 99.1092L125.929 99.8562C115.798 109.32 103.191 121.097 104.758 136.454C105.304 141.826 108.073 146.218 110.752 150.462L110.757 150.47C112.753 153.64 114.819 156.921 115.878 160.531C118.366 169.001 112.438 177.166 107.67 183.725C106.329 185.57 104.869 187.414 103.452 189.201L103.396 189.271C102.112 190.885 100.818 192.519 99.5723 194.199H101.198C102.252 192.806 103.334 191.438 104.409 190.087L104.628 189.81C106.001 188.079 107.414 186.295 108.719 184.498L108.722 184.492C113.655 177.7 119.79 169.251 117.124 160.16C116.01 156.37 113.894 153.012 111.843 149.763L111.829 149.74C109.12 145.438 106.562 141.376 106.048 136.318C104.548 121.615 116.885 110.087 126.803 100.822L126.81 100.816L127.609 100.069C133.704 94.3707 139.358 89.4442 146.877 86.8466C150.183 85.7052 153.72 85.1318 157.139 84.5777L157.149 84.5762C157.838 84.4645 158.526 84.3526 159.212 84.2376C159.385 84.2091 159.574 84.1749 159.777 84.1383L159.783 84.1373C159.835 84.1278 159.889 84.1181 159.944 84.1082L159.989 84.1001L160.048 84.0896L160.051 84.0892C162.514 83.6416 167.096 82.8092 169.194 84.2896C169.776 84.7023 170.122 85.2664 170.251 86.0145C170.637 88.2862 169.678 91.1316 168.829 93.6408C168.624 94.2411 168.433 94.8081 168.265 95.3472C167.161 98.931 165.828 102.545 164.19 106.398C161.467 112.807 158.058 119.516 153.46 127.506C152.346 129.435 151.073 131.441 149.72 133.564L149.717 133.568C143.329 143.62 136.089 155.011 140.915 166.466C143.723 173.135 148.696 179.475 152.711 184.251C155.903 188.048 159.228 191.376 162.64 194.199Z" fill="#F8B874"/>
</svg>
