<svg width="16" height="23" viewBox="0 0 16 23" fill="none" xmlns="http://www.w3.org/2000/svg">
<path d="M2.49907 1.49937C3.01991 1.49937 5.14583 0.0818749 5.5 0.498542C5.83333 0.894375 4.62407 4.04104 4.62407 4.62437V17.8431C4.62407 18.114 4.67616 18.3327 4.78032 18.4994C4.88449 18.666 4.99907 18.791 5.12407 18.8744C5.22824 18.9577 5.32199 18.9994 5.40532 18.9994C5.50949 18.9994 5.62407 18.9577 5.74907 18.8744C5.85324 18.791 5.95741 18.666 6.06157 18.4994C6.14491 18.3327 6.19699 18.114 6.21782 17.8431V7.62437C6.23866 6.31187 6.49907 5.22854 6.99907 4.37437C7.47824 3.5202 8.05115 2.91604 8.71782 2.56187C9.36365 2.18687 10.0199 1.99937 10.6866 1.99937C11.3324 1.99937 11.9887 2.18687 12.6553 2.56187C13.3012 2.93687 13.8741 3.55145 14.3741 4.40562C14.8532 5.23895 15.0928 6.31187 15.0928 7.62437C15.1137 7.85354 15.1241 8.0202 15.1241 8.12437V20.2494C15.1241 20.8327 14.9574 21.3327 14.6241 21.7494C14.2699 22.1452 13.9991 22.9994 13.4991 22.9994C12.9782 22.9994 12.3845 22.1348 12.0303 21.7181C11.697 21.3223 11.5303 20.8327 11.5303 20.2494V7.37437C11.5512 7.06187 11.5095 6.81187 11.4053 6.62437C11.3012 6.41604 11.1866 6.25979 11.0616 6.15562C10.9366 6.05145 10.8116 5.99937 10.6866 5.99937C10.6241 5.99937 10.5199 6.05145 10.3741 6.15562C10.2074 6.25979 10.0824 6.41604 9.99907 6.62437C9.8949 6.81187 9.8324 7.06187 9.81157 7.37437V17.6244C9.79074 18.8327 9.54074 19.8327 9.06157 20.6244C8.56157 21.416 7.98866 21.9785 7.34282 22.3119C6.69699 22.6452 6.05116 22.8119 5.40532 22.8119C4.75949 22.8119 4.12407 22.6452 3.49907 22.3119C2.85324 21.9577 2.30116 21.3952 1.84282 20.6244C1.36366 19.8327 1.10324 18.8327 1.06157 17.6244C1.04074 17.416 1.03032 17.2598 1.03032 17.1556V4.62437C1.03032 4.04104 0.145517 2.3952 0.499684 1.99937C0.833017 1.5827 1.99907 1.49937 2.49907 1.49937Z" fill="#31302E"/>
</svg>
